<svg xmlns="http://www.w3.org/2000/svg" width="49.206" height="49.379" viewBox="0 0 49.206 49.379"><g transform="translate(40.206 40.379) rotate(180)"><path d="M0,40.206A8.972,8.972,0,0,1-6.364,37.57a9,9,0,0,1,0-12.728L24.842-6.364a9,9,0,0,1,12.728,0,9,9,0,0,1,0,12.728L6.364,37.57A8.972,8.972,0,0,1,0,40.206Z" fill="rgba(9,114,255,0.5)"/><path d="M0,40.189a8.972,8.972,0,0,1-6.364-2.636,9,9,0,0,1,0-12.728L24.825-6.364a9,9,0,0,1,12.728,0,9,9,0,0,1,0,12.728L6.364,37.553A8.972,8.972,0,0,1,0,40.189Z" transform="translate(0.016 31.379) rotate(-90)" fill="rgba(9,114,255,0.5)"/></g></svg>